<svg width="365" height="186" viewBox="0 0 365 186" fill="none" xmlns="http://www.w3.org/2000/svg">
<g clip-path="url(#clip0_1575_719)">
<path d="M149.08 94.8702C175.28 94.8702 196.52 73.6302 196.52 47.4302C196.52 21.2302 175.28 -0.00976562 149.08 -0.00976562H0V94.8602H149.08V94.8702ZM150.31 12.0302H160.75V73.3502H150.31V12.0302ZM32.68 73.3502H22.1V27.2402H9.26V16.2402H45.53V27.2402H32.69V73.3602L32.68 73.3502ZM78.41 55.4602C78.41 68.0602 72.84 74.3602 61.69 74.3602C50.54 74.3602 44.97 68.0602 44.97 55.4602V47.4002C44.97 34.8002 50.54 28.5002 61.69 28.5002C72.84 28.5002 78.41 34.8002 78.41 47.4002V55.4602ZM105.71 73.3502H98.02C90.47 73.3502 87.3 69.1502 87.3 59.0702V38.9102H81.94V29.5002H87.51L88.07 18.5802H97.74V29.5002H105.36V38.9102H97.74V58.3102C97.74 62.4302 98.59 63.6002 101.62 63.6002H105.71V73.3402V73.3502ZM141.77 73.3502H132.95L132.6 67.8902C130.06 72.1702 126.39 74.3602 121.52 74.3602C114.25 74.3602 109.88 69.4902 109.88 60.7502C109.88 51.5102 114.75 46.3902 124.56 46.3902H131.33V44.9602C131.33 40.4202 129.85 38.2402 126.11 38.2402C122.37 38.2402 121.1 40.1702 120.96 43.2002H110.87C111.43 33.4602 116.37 28.5002 126.53 28.5002C136.69 28.5002 141.77 33.7102 141.77 45.1302V73.3502Z" fill="#222A62"/>
<path d="M120.18 59.7501C120.18 62.9401 121.73 64.6201 124.7 64.6201C127.67 64.6201 129.85 62.9401 131.33 59.6601V54.6201H126.46C121.73 54.6201 120.18 56.5501 120.18 59.7401V59.7501Z" fill="#222A62"/>
<path d="M61.68 38.5801C57.24 38.5801 55.4 41.2701 55.4 47.6501V55.2101C55.4 61.5901 57.23 64.2801 61.68 64.2801C66.13 64.2801 67.96 61.5901 67.96 55.2101V47.6501C67.96 41.2701 66.13 38.5801 61.68 38.5801Z" fill="#222A62"/>
<path d="M9.26001 123.24H22.1V169.35H32.68V123.24H45.52V112.23H9.26001V123.24Z" fill="#222A62"/>
<path d="M57.03 133.65L56.61 125.5H47.72V169.35H58.16V144.82C59.15 138.69 61.76 136.25 67.19 136.25H69.17V124.66H66.42C61.34 124.66 58.45 127.43 57.04 133.65H57.03Z" fill="#222A62"/>
<path d="M88.78 124.5C78.62 124.5 73.68 129.46 73.12 139.2H83.21C83.35 136.18 84.76 134.24 88.36 134.24C91.96 134.24 93.58 136.42 93.58 140.96V142.39H86.81C77 142.39 72.13 147.51 72.13 156.75C72.13 165.49 76.51 170.36 83.77 170.36C88.64 170.36 92.31 168.18 94.85 163.89L95.2 169.35H104.02V141.13C104.02 129.71 99.22 124.5 88.78 124.5ZM93.58 155.66C92.1 158.94 89.91 160.62 86.95 160.62C83.99 160.62 82.43 158.94 82.43 155.75C82.43 152.56 83.98 150.63 88.71 150.63H93.58V155.67V155.66Z" fill="#222A62"/>
<path d="M123 125.51H112.56V169.36H123V125.51Z" fill="#222A62"/>
<path d="M123.29 108.71H112.28V119.29H123.29V108.71Z" fill="#222A62"/>
<path d="M151.93 124.5C147.41 124.5 144.03 126.43 141.21 130.8L140.93 125.51H132.04V169.36H142.48V141.05C144.03 137.19 146.22 135.25 148.97 135.25C151.72 135.25 153.06 137.27 153.06 141.38V169.35H163.5V140.29C163.5 129.87 159.55 124.5 151.93 124.5Z" fill="#222A62"/>
<path d="M182.98 108.71H171.97V119.29H182.98V108.71Z" fill="#222A62"/>
<path d="M182.69 125.51H172.25V169.36H182.69V125.51Z" fill="#222A62"/>
<path d="M211.62 124.5C207.1 124.5 203.72 126.43 200.9 130.8L200.62 125.51H191.73V169.36H202.17V141.05C203.72 137.19 205.91 135.25 208.66 135.25C211.41 135.25 212.75 137.27 212.75 141.38V169.35H223.19V140.29C223.19 129.87 219.24 124.5 211.62 124.5Z" fill="#222A62"/>
<path d="M254.59 130.8C251.84 126.43 248.45 124.5 243.8 124.5C235.4 124.5 230.68 130.63 230.68 142.48V149.62C230.68 161.46 235.41 167.68 243.8 167.68C247.75 167.68 250.86 166.25 253.33 163.14V168.18C253.33 173.81 251.42 175.91 246.84 175.91C243.17 175.91 241.41 174.57 241.12 171.21H231.31C231.73 181.46 237.17 185.66 246.97 185.66C258.26 185.66 263.76 180.2 263.76 168.19V125.52H254.87L254.59 130.81V130.8ZM253.32 150.87C251.84 155.32 249.51 157.59 246.19 157.59C242.87 157.59 241.11 155.32 241.11 149.61V142.55C241.11 136.92 242.87 134.57 246.26 134.57C249.65 134.57 251.83 136.84 253.32 141.21V150.87Z" fill="#222A62"/>
<path d="M307.7 149.78C307.7 156.92 305.73 159.52 300.42 159.52C295.11 159.52 293.14 156.92 293.14 149.78V112.23H282.93V150.2C282.93 164.31 288.1 170.36 300.28 170.36C312.46 170.36 317.56 164.31 317.56 150.2V112.23H307.7V149.78Z" fill="#222A62"/>
<path d="M349.54 135.67L364.45 112.23H352.74L337.03 137.18V112.23H326.82V169.35H337.03V154.23L342.47 145.67L353.01 169.35H364.65L349.54 135.67Z" fill="#222A62"/>
<path d="M218.25 76.4404C211.27 76.4404 205.61 82.1004 205.61 89.0804C205.61 96.0604 211.27 101.72 218.25 101.72C225.23 101.72 230.89 96.0604 230.89 89.0804C230.89 82.1004 225.23 76.4404 218.25 76.4404ZM218.25 94.8704C215.05 94.8704 212.46 92.2804 212.46 89.0804C212.46 85.8804 215.05 83.2904 218.25 83.2904C221.45 83.2904 224.04 85.8804 224.04 89.0804C224.04 92.2804 221.45 94.8704 218.25 94.8704Z" fill="#222A62"/>
<path d="M319.91 76.4404C312.93 76.4404 307.27 82.1004 307.27 89.0804C307.27 96.0604 312.93 101.72 319.91 101.72C326.89 101.72 332.55 96.0604 332.55 89.0804C332.55 82.1004 326.89 76.4404 319.91 76.4404ZM319.91 94.8704C316.71 94.8704 314.12 92.2804 314.12 89.0804C314.12 85.8804 316.71 83.2904 319.91 83.2904C323.11 83.2904 325.7 85.8804 325.7 89.0804C325.7 92.2804 323.11 94.8704 319.91 94.8704Z" fill="#222A62"/>
<path d="M359.06 79.5798L358.78 55.3398H361.04C361.04 55.3398 360.8 51.5798 360.62 49.0798C360.43 46.5898 355.77 42.3498 355.77 42.3498C355.77 42.3498 338.83 27.0998 328.66 16.9398C318.5 6.77977 307.48 5.00977 307.48 5.00977H178.09C184.26 8.84977 189.52 13.9898 193.51 20.0498H203.33C206.12 20.0498 208.38 22.3098 208.38 25.0998V43.7598C208.38 46.5498 206.12 48.8098 203.33 48.8098H201.66C201.21 65.6698 192.41 80.4398 179.23 89.1398H197.78C197.78 89.1398 197.78 89.1098 197.78 89.0898C197.78 77.7798 206.94 68.6198 218.25 68.6198C229.56 68.6198 238.72 77.7798 238.72 89.0898C238.72 89.1098 238.72 89.1198 238.72 89.1398H299.44C299.44 89.1398 299.44 89.1098 299.44 89.0898C299.44 77.7798 308.6 68.6198 319.91 68.6198C331.22 68.6198 340.37 77.7698 340.38 89.0698C345.72 88.9098 358.79 88.5298 359.91 88.5698C361.32 88.6198 361.65 86.9198 361.65 86.9198V79.8598L359.06 79.5798ZM245.27 43.7598C245.27 46.5498 243.01 48.8098 240.22 48.8098H221.56C218.77 48.8098 216.51 46.5498 216.51 43.7598V25.0998C216.51 22.3098 218.77 20.0498 221.56 20.0498H240.22C243.01 20.0498 245.27 22.3098 245.27 25.0998V43.7598ZM282.16 43.7598C282.16 46.5498 279.9 48.8098 277.11 48.8098H258.45C255.66 48.8098 253.4 46.5498 253.4 43.7598V25.0998C253.4 22.3098 255.66 20.0498 258.45 20.0498H277.11C279.9 20.0498 282.16 22.3098 282.16 25.0998V43.7598ZM334.15 48.7998H297.97C295.16 48.7998 292.89 46.5198 292.89 43.7198V25.1298C292.89 22.3198 295.17 20.0498 297.97 20.0498H307.26C310.06 20.0498 312.74 21.1598 314.71 23.1398L335.97 44.3998C337.59 46.0298 336.44 48.7998 334.15 48.7998Z" fill="#222A62"/>
<path d="M161.3 5.00997H161.42C161.42 5.00997 161.34 4.96997 161.3 5.00997Z" fill="#222A62"/>
</g>
<defs>
<clipPath id="clip0_1575_719">
<rect width="364.65" height="185.65" fill="white"/>
</clipPath>
</defs>
</svg>
